<?xml version="1.0" encoding="UTF-8" standalone="no"?>
<!-- Created with Inkscape (http://www.inkscape.org/) -->

<svg
   xmlns:osb="http://www.openswatchbook.org/uri/2009/osb"
   xmlns:dc="http://purl.org/dc/elements/1.1/"
   xmlns:cc="http://creativecommons.org/ns#"
   xmlns:rdf="http://www.w3.org/1999/02/22-rdf-syntax-ns#"
   xmlns:svg="http://www.w3.org/2000/svg"
   xmlns="http://www.w3.org/2000/svg"
   xmlns:xlink="http://www.w3.org/1999/xlink"
   xmlns:sodipodi="http://sodipodi.sourceforge.net/DTD/sodipodi-0.dtd"
   xmlns:inkscape="http://www.inkscape.org/namespaces/inkscape"
   width="800"
   height="60"
   id="svg7166"
   version="1.1"
   inkscape:version="0.48.4 r9939"
   sodipodi:docname="New document 7">
  <defs
     id="defs7168">
    <inkscape:path-effect
       effect="rough_hatches"
       id="path-effect7691"
       is_visible="true"
       direction="400.06715,1016.6545 , 4.9691295,3.5882374"
       dist_rdm="75;1"
       growth="0"
       do_bend="true"
       bender="400.06715,1022.0368 , 0,0.89705935"
       bottom_edge_variation="6;1"
       top_edge_variation="6;1"
       bottom_tgt_variation="0;1"
       top_tgt_variation="0;1"
       scale_bf="1"
       scale_bb="1"
       scale_tf="1"
       scale_tb="1"
       top_smth_variation="0;1"
       bottom_smth_variation="0;1"
       fat_output="true"
       stroke_width_top="1"
       stroke_width_bottom="1"
       front_thickness="1"
       back_thickness="0.25" />
    <linearGradient
       id="linearGradient7684"
       osb:paint="solid">
      <stop
         style="stop-color:#000000;stop-opacity:1;"
         offset="0"
         id="stop7686" />
    </linearGradient>
    <linearGradient
       inkscape:collect="always"
       xlink:href="#linearGradient7684"
       id="linearGradient7688"
       x1="0"
       y1="30"
       x2="800"
       y2="30"
       gradientUnits="userSpaceOnUse" />
    <linearGradient
       inkscape:collect="always"
       xlink:href="#linearGradient7684"
       id="linearGradient7693"
       gradientUnits="userSpaceOnUse"
       x1="0"
       y1="30"
       x2="800"
       y2="30"
       gradientTransform="matrix(0.9938259,0,0,0.89705935,2.5367898,995.12505)" />
  </defs>
  <sodipodi:namedview
     id="base"
     pagecolor="#ffffff"
     bordercolor="#666666"
     borderopacity="1.0"
     inkscape:pageopacity="0.0"
     inkscape:pageshadow="2"
     inkscape:zoom="1"
     inkscape:cx="382.02381"
     inkscape:cy="-22.857143"
     inkscape:document-units="px"
     inkscape:current-layer="layer1"
     showgrid="false"
     inkscape:snap-page="true"
     inkscape:window-width="1501"
     inkscape:window-height="701"
     inkscape:window-x="2076"
     inkscape:window-y="156"
     inkscape:window-maximized="0" />
  <metadata
     id="metadata7171">
    <rdf:RDF>
      <cc:Work
         rdf:about="">
        <dc:format>image/svg+xml</dc:format>
        <dc:type
           rdf:resource="http://purl.org/dc/dcmitype/StillImage" />
        <dc:title></dc:title>
      </cc:Work>
    </rdf:RDF>
  </metadata>
  <g
     inkscape:label="Layer 1"
     inkscape:groupmode="layer"
     id="layer1"
     transform="translate(0,-992.36218)">
    <path
       style="fill:none;stroke:url(#linearGradient7693);stroke-width:1.99999988;stroke-linecap:round;stroke-miterlimit:4"
       d="m 797.09585,1048.9486 c 0,0 -0.0335,0.2599 -0.0335,-1.2398 0,-2.1403 -2.38853,1.1701 -3.02787,1.1701 -1.10152,0 2.01252,-4.316 2.01252,-6.1224 0,-2.447 -7.1984,7.5296 -6.95692,7.5296 -0.22069,0 7.28622,-10.4042 7.28622,-11.677 0,-1.9133 -9.47646,11.2206 -9.93433,11.2206 -0.92006,0 12.3355,-18.3716 12.3355,-20.1719 0,-2.4409 -13.91458,16.844 -14.61148,16.844 -1.15909,0 13.40404,-20.1837 13.40404,-21.0699 0,-1.5269 -17.51174,22.7434 -17.42517,22.7434 -0.37563,0 16.4647,-23.3397 16.4647,-24.7474 0,-2.0483 -20.29446,26.0785 -20.2433,26.0785 -0.41104,0 20.02376,-28.3213 20.02376,-29.6554 0,-1.9747 -23.04178,29.9597 -23.61475,29.9597 -1.03517,0 23.09336,-33.4404 23.09336,-35.0138 0,-2.2139 -27.38265,35.7363 -27.26952,35.7363 -0.34908,0 29.83534,-41.8333 29.83534,-42.4497 0,-1.2569 -28.97027,38.8938 -28.61812,38.8938 -0.11004,0 28.48091,-39.625 28.48091,-41.0327 0,-2.0483 -31.22188,41.2229 -31.1663,41.2229 -0.40662,0 30.13723,-42.3314 30.13723,-43.095 0,-1.4042 -33.13708,44.5211 -32.78493,44.5211 -0.11004,0 33.70423,-46.8639 33.70423,-47.6152 0,-1.39184 -34.44142,46.3412 -34.03615,46.3412 -0.0569,0 33.2815,-46.2044 33.2815,-47.2195 0,-1.65562 -36.02023,48.2654 -36.67732,48.2654 -1.1193,0 35.61648,-50.91257 34.98489,-51.16887 -0.98909,-0.40137 -39.37957,52.80417 -39.89944,52.80417 -0.98208,0 37.91383,-53.9059 36.96895,-53.9059 -1.40706,0 -39.65827,53.0122 -39.26184,53.0122 -0.0658,0 39.66727,-55.066 38.64714,-55.066 -1.48232,10e-6 -39.7337,53.0123 -39.95257,53.0123 -0.68109,0 38.22898,-53.92508 37.56737,-53.92508 -1.12379,0 -39.37539,53.01238 -39.17373,53.01238 -0.26055,0 38.07337,-53.12648 37.29668,-53.12647 -1.23888,0 -39.49064,53.01237 -39.35095,53.01237 -0.32254,0 36.07691,-50.44516 34.65839,-50.44516 -1.8807,0 -40.13275,53.01226 -39.76287,53.01226 -0.0923,0 39.0927,-54.30536 38.59486,-54.30536 -0.96003,0 -39.21217,53.01236 -39.79846,53.01236 -1.04851,0 37.71143,-53.71596 36.948,-53.71595 -1.22562,0 -39.47805,53.01235 -39.2631,53.01235 -0.24728,0 38.41677,-53.58283 37.14873,-53.58282 -1.73024,0 -39.9829,53.01242 -40.44083,53.01242 -0.92015,0 36.94844,-52.47996 35.55644,-52.47996 -1.85419,10e-6 -40.10723,53.01236 -40.10919,53.01236 -0.4642,0 38.33771,-53.77299 37.94166,-53.77298 -0.85825,0 -39.11142,53.01248 -39.01599,53.01248 -0.36681,0 36.74754,-51.43418 36.39575,-51.43418 -0.81398,10e-6 -39.06727,53.01238 -38.87445,53.01238 -0.26942,0 35.82967,-50.02693 35.23443,-50.02693 -1.05744,-10e-6 -39.31086,53.01213 -39.45449,53.01213 -0.60586,0 39.54111,-55.63627 38.61388,-55.63627 -1.38944,0 -39.64311,53.01227 -40.03021,53.01227 -0.84935,10e-5 35.93627,-50.97763 35.5048,-50.97763 -0.89367,-10e-6 -39.14755,53.01213 -39.43726,53.01213 -0.75196,0 38.57223,-54.49533 37.53875,-54.49533 -1.4957,0 -39.74985,53.01233 -40.11925,53.01233 -0.83165,0 39.1926,-55.46528 38.45127,-55.46528 -1.20356,10e-6 -39.45796,53.01248 -39.48648,53.01248 -0.49078,0 35.7604,-50.23627 35.23154,-50.23627 -0.99108,-10e-6 -39.24565,53.01227 -39.71244,53.01227 -0.92906,0 37.42166,-53.14538 36.06501,-53.14538 -1.81887,0 -40.0738,53.01228 -39.96509,53.01228 -0.35354,0 38.91676,-54.41938 37.54239,-54.41937 -1.83659,0 -40.0918,53.01237 -40.53647,53.01237 -0.90693,0 37.63652,-53.41167 36.22673,-53.41167 -1.87202,10e-6 -40.1276,53.01247 -40.4793,53.01247 -0.81398,0 36.7968,-52.11878 35.5862,-52.11878 -1.67283,0 -39.92873,53.01238 -39.59423,53.01238 -0.12777,0 38.5809,-53.63985 37.62705,-53.63985 -1.41609,0 -39.67216,53.01245 -40.25851,53.01245 -1.04862,0 34.76524,-49.62792 33.73612,-49.62793 -1.49135,0 -39.74775,53.01213 -39.66117,53.01213 -0.3757,0 41.03655,-57.38537 40.44126,-57.38537 -1.05753,10e-6 -39.31409,53.01257 -39.97571,53.01257 -1.12389,0 36.83094,-52.59425 35.39453,-52.59424 -1.89865,10e-6 -40.15561,53.01254 -40.75525,53.01254 -1.06193,0 34.53329,-49.32386 33.47758,-49.32387 -1.51795,0 -39.77524,53.01217 -39.3699,53.01217 -0.0569,0 40.03894,-55.56 38.76189,-55.56 -1.73931,10e-6 -39.99682,53.0124 -40.69387,53.0124 -1.15935,0 37.74319,-53.90603 36.35102,-53.90602 -1.85443,0 -40.11234,53.01252 -40.41537,53.01252 -0.76532,0 35.2836,-49.95137 33.99767,-49.95138 -1.7482,0 -40.00644,53.01228 -40.65481,53.01228 -1.11066,0 37.27121,-53.18341 35.96755,-53.18341 -1.76592,0 -40.02454,53.01231 -40.6065,53.01231 -1.04427,0 36.70681,-52.30884 35.96096,-52.30885 -1.20812,0 -39.46703,53.01225 -40.1464,53.01225 -1.14168,0 39.03832,-55.67405 38.2172,-55.67404 -1.28339,0 -39.54261,53.01244 -39.97847,53.01244 -0.89817,0 38.52744,-54.62852 37.82585,-54.62852 -1.16386,10e-6 -39.42334,53.01262 -39.99646,53.01262 -1.03543,0 36.35975,-51.81481 35.87509,-51.81481 -0.94694,0 -39.20666,53.01251 -39.54954,53.01251 -0.80521,0 38.45623,-54.40042 38.06012,-54.40041 -0.8584,0 -39.11831,53.01261 -39.68701,53.01261 -1.03101,0 36.52925,-52.04297 36.1597,-52.04297 -0.83184,0 -39.09197,53.01257 -39.33746,53.01257 -0.7078,0 37.49752,-52.93652 36.67195,-52.93652 -1.28785,10e-6 -39.54823,53.01252 -39.55019,53.01252 -0.46429,0 36.80822,-51.64364 35.33625,-51.64364 -1.93425,0 -40.19493,53.01244 -39.99765,53.01244 -0.26505,0 37.95448,-52.9554 36.89868,-52.9554 -1.51809,0 -39.77899,53.0124 -39.4843,53.0124 -0.16763,0 37.37976,-52.02379 36.92608,-52.02379 -0.91598,0 -39.17697,53.01239 -39.86966,53.01239 -1.15503,0 39.35636,-56.13032 38.77428,-56.13032 -1.04438,0 -39.30565,53.01262 -39.23234,53.01262 -0.38903,0 35.92388,-50.31295 34.54929,-50.31295 -1.83689,-10e-6 -40.09844,53.01235 -40.4812,53.01235 -0.84509,0 37.49889,-53.12643 36.58474,-53.12643 -1.37645,0 -39.63828,53.01243 -39.84393,53.01243 -0.66798,0 37.26461,-52.55616 36.05825,-52.55616 -1.66868,0 -39.93081,53.01236 -39.76009,53.01236 -0.29162,0 39.20541,-54.72338 38.72957,-54.72338 -0.93814,0 -39.20039,53.01248 -38.83927,53.01248 -0.10123,0 37.98263,-52.76533 36.78953,-52.76533 -1.6554,0 -39.91786,53.01253 -39.68515,53.01253 -0.22963,0 38.86981,-54.17221 38.22572,-54.1722 -1.1064,0 -39.36899,53.0126 -39.31782,53.0126 -0.41118,0 35.65608,-49.97083 34.77291,-49.97084 -1.3455,0 -39.6083,53.01234 -40.06634,53.01234 -0.9204,0 36.97205,-52.49905 35.87191,-52.49906 -1.56245,0 -39.82558,53.01236 -39.75227,53.01236 -0.38904,0 40.0283,-55.99705 38.79533,-55.99705 -1.69529,0 -39.95868,53.01255 -40.31931,53.01255 -0.82299,0 35.23141,-49.95184 33.90544,-49.95184 -1.78829,-1e-5 -40.05202,53.01234 -40.41265,53.01234 -0.823,0 37.93478,-53.69673 36.50253,-53.69673 -1.89457,-10e-6 -40.15865,53.01243 -40.53258,53.01243 -0.83629,0 36.82417,-52.17599 35.48047,-52.176 -1.80603,-10e-6 -40.07047,53.0123 -39.97944,53.0123 -0.37134,0 38.78497,-54.24796 38.09215,-54.24797 -1.15516,0 -39.41977,53.01247 -39.97082,53.01247 -1.01343,0 36.97688,-52.63227 35.92982,-52.63227 -1.50939,-10e-6 -39.77432,53.01237 -39.94898,53.01237 -0.63704,0 40.02912,-56.33911 39.23002,-56.3391 -1.26145,0 -39.52661,53.0127 -39.93597,53.0127 -0.87174,0 35.78817,-50.78855 34.53299,-50.78855 -1.71753,0 -39.98302,53.01255 -39.69272,53.01255 -0.17209,0 36.84479,-51.28268 35.4302,-51.28268 -1.87694,-10e-6 -40.14269,53.01238 -40.14466,53.01238 -0.46435,0 38.81679,-54.41909 38.47375,-54.41909 -0.8054,-1e-5 -39.07127,53.01249 -39.27251,53.01249 -0.66363,0 38.67255,-54.49523 37.79816,-54.49523 -1.33676,0 -39.60288,53.01263 -39.84397,53.01263 -0.70349,0 37.83713,-53.39281 36.82546,-53.39281 -1.47403,10e-6 -39.74042,53.01271 -39.37483,53.01271 -0.0968,0 35.57629,-49.41997 35.00299,-49.41997 -1.03566,-10e-6 -39.30216,53.01237 -39.30855,53.01237 -0.46879,0 37.78402,-52.99337 37.40998,-52.99337 -0.83641,-10e-6 -39.10304,53.01237 -39.62755,53.01237 -0.98692,0 37.48565,-53.29752 36.72637,-53.29752 -1.22165,0 -39.48857,53.01242 -39.37539,53.01242 -0.34923,0 38.89189,-54.36205 37.83592,-54.36206 -1.51833,0 -39.78547,53.01256 -39.74758,53.01256 -0.42451,0 39.98313,-55.97794 39.45852,-55.97793 -0.98697,0 -39.25426,53.01273 -39.45551,53.01273 -0.66365,0 34.77719,-49.09693 34.03117,-49.09693 -1.20838,0 -39.47589,53.01243 -39.76571,53.01243 -0.75222,0 36.92537,-52.19507 35.49742,-52.19508 -1.89033,-10e-6 -40.15819,53.01238 -40.16458,53.01238 -0.46881,0 38.03235,-53.33553 37.37931,-53.33553 -1.11541,-10e-6 -39.38345,53.01243 -39.54926,53.01243 -0.62824,0 38.62777,-54.38104 37.59391,-54.38104 -1.49624,0 -39.76454,53.01254 -40.20494,53.01254 -0.90281,0 36.707,-52.10016 36.16023,-52.10016 -1.00915,0 -39.27768,53.01246 -39.08921,53.01246 -0.27396,0 37.58295,-52.44222 37.0539,-52.44222 -0.99144,-10e-6 -39.2601,53.01242 -38.84135,53.01242 -0.0437,0 38.58171,-53.50663 37.72939,-53.50663 -1.3147,-10e-6 -39.5835,53.01243 -39.23561,53.01243 -0.11453,0 38.00333,-52.80335 37.21743,-52.80335 -1.24828,-10e-6 -39.51723,53.01245 -40.1082,53.01245 -1.0534,0 39.09545,-55.61654 38.72581,-55.61654 -0.83203,0 -39.10121,53.01264 -39.27146,53.01264 -0.63268,0 35.45492,-49.9904 34.05348,-49.99041 -1.86384,-10e-6 -40.13334,53.01241 -40.0733,53.01241 -0.4024,0 39.81551,-55.7115 39.43258,-55.7115 -0.84533,0 -39.11496,53.0127 -39.61294,53.0127 -0.96041,0 36.11561,-51.35905 35.7371,-51.35905 -0.8409,0 -39.11074,53.01255 -39.0507,53.01255 -0.4024,0 39.43166,-55.1794 38.73873,-55.1794 -1.15532,0 -39.42533,53.0127 -39.35643,53.0127 -0.39355,0 35.88695,-50.25663 34.44562,-50.25663 -1.90373,-10e-6 -40.17403,53.01253 -40.19371,53.01253 -0.48213,0 40.45009,-56.69995 39.47374,-56.69994 -1.43876,0 -39.7093,53.01274 -40.07885,53.01274 -0.832,10e-5 35.49025,-50.31372 34.08432,-50.31372 -1.86833,-10e-6 -40.13922,53.01262 -40.27848,53.01262 -0.60171,0 39.89204,-56.09176 38.73854,-56.09175 -1.61593,0 -39.8871,53.01285 -40.35852,53.01285 -0.93388,0 34.41483,-48.96439 33.96102,-48.9644 -0.91622,0 -39.18761,53.0125 -39.81405,53.0125 -1.0889,0 40.18752,-57.17497 39.16243,-57.17496 -1.48752,10e-6 -39.75925,53.01286 -40.37241,53.01286 -1.07562,0 35.19298,-50.23789 33.89773,-50.23789 -1.75767,-1e-5 -40.02978,53.01259 -39.70843,53.01259 -0.14111,0 38.72098,-53.82987 37.47444,-53.82987 -1.70897,0 -39.9813,53.01267 -39.90354,53.01267 -0.38471,0 38.05229,-53.24074 36.99175,-53.24074 -1.52298,0 -39.79554,53.01274 -39.91708,53.01274 -0.58402,0 35.52068,-50.00977 34.55755,-50.00978 -1.42555,-10e-6 -39.69835,53.01248 -39.5143,53.01248 -0.27841,0 40.77976,-56.87071 39.44904,-56.8707 -1.79314,0 -40.06621,53.0128 -40.49337,53.0128 -0.88963,0 35.88795,-50.94116 34.77866,-50.94116 -1.57172,0 -39.8451,53.01266 -40.14825,53.01266 -0.76562,0 39.30529,-55.50241 38.03656,-55.50241 -1.73117,1e-5 -40.00488,53.01291 -39.8031,53.01291 -0.2607,0 38.08161,-53.10793 36.81287,-53.10792 -1.73119,0 -40.00513,53.01282 -39.83436,53.01282 -0.29171,0 34.85386,-48.67957 33.66926,-48.67957 -1.64705,-10e-6 -39.92123,53.01247 -39.50685,53.01257 -0.0481,0 40.95653,-56.79465 39.55048,-56.79464 -1.8685,0 -40.14292,53.01284 -39.86141,53.01284 -0.18098,0 37.73667,-52.5187 36.36162,-52.5187 -1.83751,0 -40.11217,53.0128 -40.46848,53.0128 -0.8188,0 35.35664,-50.10502 34.20302,-50.10502 -1.61608,-10e-6 -39.89105,53.01252 -40.08348,53.01252 -0.65492,0 38.30617,-53.96278 37.06396,-53.96278 -1.70467,0 -39.97995,53.01268 -40.50901,53.01268 -0.99156,0 38.02477,-54.03894 37.47348,-54.03895 -1.01376,0 -39.28928,53.01275 -39.42413,53.01275 -0.59735,0 37.48614,-52.74668 36.07118,-52.74668 -1.87743,0 -40.15327,53.01278 -40.51845,53.01278 -0.82768,0 36.73476,-52.02455 35.77156,-52.02455 -1.42568,0 -39.70181,53.01265 -39.75692,53.01265 -0.51763,0 39.63831,-55.61626 38.97628,-55.61626 -1.1245,10e-6 -39.40082,53.01286 -39.89445,53.01286 -0.95616,0 37.70446,-53.54497 37.22845,-53.54497 -0.93849,0 -39.21503,53.01287 -39.10626,53.01287 -0.35374,0 38.12864,-53.29793 37.66591,-53.29793 -0.9252,10e-6 -39.20188,53.01293 -38.97351,53.01293 -0.23414,0 35.61392,-49.64918 34.92087,-49.64919 -1.15552,0 -39.43234,53.01269 -39.77981,53.01269 -0.80999,0 39.49763,-55.82529 38.65399,-55.82529 -1.30613,10e-6 -39.58321,53.01289 -39.65605,53.01289 -0.53536,0 37.41247,-52.55679 36.50239,-52.55678 -1.37257,0 -39.64989,53.01288 -39.64299,53.01288 -0.45564,0 37.58846,-52.68981 36.29303,-52.68981 -1.75793,0 -40.03552,53.01281 -40.67978,53.01281 -1.10679,10e-5 36.66326,-52.30967 35.38553,-52.30967 -1.74022,0 -40.01819,53.01277 -40.29037,53.01277 -0.73471,0 36.47311,-51.5305 35.0492,-51.5305 -1.8864,-10e-6 -40.16472,53.0127 -40.60523,53.0127 -0.90304,0 37.77329,-53.56381 36.36266,-53.56381 -1.87314,0 -40.15183,53.01271 -40.41072,53.01271 -0.72143,0 38.80595,-54.742 37.80724,-54.742 -1.46122,0 -39.74018,53.0129 -39.97692,53.0129 -0.69929,0 35.9195,-50.71353 34.54871,-50.71353 -1.8333,-10e-6 -40.11259,53.01273 -39.81333,53.01273 -0.16328,0 38.43158,-53.44981 37.33098,-53.44981 -1.56312,0 -39.84261,53.01271 -39.98633,53.01271 -0.60627,0 37.06956,-52.17659 36.07526,-52.1766 -1.45682,0 -39.73657,53.0127 -40.10178,53.0127 -0.82777,0 38.0558,-53.84882 37.20323,-53.84882 -1.31508,0 -39.59509,53.01272 -39.72552,53.01272 -0.59299,0 36.75405,-51.72056 36.29128,-51.72056 -0.92528,-10e-6 -39.20547,53.01266 -38.9505,53.01266 -0.20758,0 38.96446,-54.24782 37.66007,-54.24782 -1.76691,-10e-6 -40.04734,53.01272 -40.48786,53.01272 -0.9031,0 36.75999,-52.15763 36.16433,-52.15763 -1.05819,-10e-6 -39.33885,53.01273 -39.29652,53.01273 -0.42023,0 39.91861,-55.86306 39.47799,-55.86306 -0.90316,0 -39.18396,53.01296 -39.19921,53.01296 -0.47782,0 37.76185,-52.95595 37.13075,-52.95595 -1.09363,0 -39.37461,53.01295 -39.76642,53.01295 -0.85437,0 35.47832,-50.31467 34.90038,-50.31467 -1.04049,0 -39.32169,53.01277 -38.98697,53.01277 -0.12786,0 39.00403,-54.19089 37.63316,-54.19089 -1.8334,0 -40.11484,53.01279 -40.75031,53.01279 -1.09804,0 37.49913,-53.44984 36.89016,-53.44984 -1.0715,0 -39.35322,53.01284 -39.58555,53.01284 -0.69491,0 38.03967,-53.63989 36.73966,-53.63989 -1.76255,0 -40.04458,53.01289 -40.64462,53.01289 -1.06261,0 36.03955,-51.37876 34.78382,-51.37876 -1.71827,-10e-6 -40.00067,53.01276 -39.70582,53.01276 -0.16773,0 37.88141,-52.68975 37.4319,-52.68975 -0.91205,0 -39.19455,53.01275 -39.20981,53.01275 -0.47784,0 40.20587,-56.33797 38.75522,-56.33797 -1.9132,10e-6 -40.19601,53.01307 -40.53467,53.01307 -0.80126,0 34.58652,-49.00383 33.78261,-49.00383 -1.26645,-10e-6 -39.54952,53.01273 -40.10083,53.01273 -1.01391,0 39.25882,-55.76788 37.79928,-55.76788 -1.92209,10e-6 -40.20555,53.01298 -40.17207,53.01298 -0.42912,0 39.1853,-54.85606 38.6206,-54.85606 -1.02726,10e-6 -39.31087,53.01316 -38.96727,53.01316 -0.119,0 36.21621,-50.31504 35.86858,-50.31504 -0.81019,0 -39.09388,53.01294 -38.70598,53.01294 -0.0747,0 38.51083,-53.43096 37.91512,-53.43096 -1.05827,0 -39.34207,53.01296 -38.96302,53.01296 -0.0836,0 37.77486,-52.42393 37.36521,-52.42393 -0.87222,-10e-6 -39.15609,53.01293 -38.86566,53.01293 -0.17216,0 38.1117,-53.01293 36.75403,-53.01293 -1.82024,-10e-6 -40.10436,53.01293 -40.57151,53.01293 -0.92976,0 39.23424,-55.61601 38.39044,-55.616 -1.30637,0 -39.59077,53.0131 -39.62375,53.0131 -0.49558,0 37.26746,-52.29108 36.9021,-52.29108 -0.82793,10e-6 -39.11246,53.01308 -39.78342,53.01308 -1.13357,0 36.51994,-52.13906 35.93751,-52.13906 -1.04501,0 -39.32982,53.01296 -39.10583,53.01296 -0.23863,0 39.29479,-54.74197 38.2782,-54.74197 -1.47916,1e-5 -39.76417,53.01317 -40.31109,53.01317 -1.00952,0 34.42165,-49.06115 33.18355,-49.06115 -1.70069,-10e-6 -39.98606,53.01285 -40.32474,53.01285 -0.80131,0 39.14439,-55.31184 37.91514,-55.31184 -1.69184,0 -39.97753,53.01304 -40.01937,53.01304 -0.50447,0 38.09685,-53.45003 36.78342,-53.45003 -1.77603,0 -40.06201,53.01303 -40.68426,53.01303 -1.08487,0 35.96636,-51.30307 35.45922,-51.30307 -0.96974,0 -39.25597,53.01297 -39.39529,53.01297 -0.60194,0 38.68598,-54.39993 38.22757,-54.39993 -0.921,0 -39.20741,53.01303 -39.46192,53.01303 -0.71714,0 38.21422,-53.906 37.17544,-53.90599 -1.50138,0 -39.78806,53.01309 -40.2774,53.01309 -0.95198,0 35.94901,-51.09416 34.87035,-51.09416 -1.54127,0 -39.82828,53.01296 -39.56883,53.01296 -0.2032,0 38.78357,-53.98192 38.14351,-53.98192 -1.10266,10e-6 -39.38981,53.01302 -39.07276,53.01302 -0.1456,0 37.16734,-51.66408 35.845,-51.66408 -1.78495,-10e-6 -40.07233,53.01298 -40.41989,53.01298 -0.81021,0 36.33842,-51.43608 34.96733,-51.43609 -1.8337,-10e-6 -40.12142,53.01279 -39.95059,53.01279 -0.29181,0 40.0129,-55.80561 39.0627,-55.80561 -1.41282,0 -39.70075,53.01301 -40.14579,53.01301 -0.9077,0 37.76452,-53.54497 37.28394,-53.54497 -0.9432,0 -39.23134,53.01307 -39.06937,53.01307 -0.30068,0 37.10933,-51.79716 36.28317,-51.79716 -1.28878,0 -39.5771,53.01296 -39.26005,53.01296 -0.1456,0 37.84085,-52.59499 36.80202,-52.59499 -1.50145,0 -39.78996,53.01299 -39.61026,53.01299 -0.28296,0 37.45672,-52.25306 36.1299,-52.25306 -1.78944,-10e-6 -40.07821,53.01296 -39.72128,53.01296 -0.10572,0 40.24118,-55.86271 38.8789,-55.8627 -1.82489,0 -40.1139,53.0132 -40.11143,53.0132 -0.46021,0 37.71907,-52.86121 36.51186,-52.86121 -1.66984,10e-6 -39.95911,53.01311 -40.07628,53.01311 -0.57984,0 37.87414,-53.24108 36.50298,-53.24107 -1.83378,10e-6 -40.12336,53.01317 -40.20066,53.01317 -0.53996,0 38.29851,-53.77308 37.09128,-53.77307 -1.66986,1e-5 -39.95973,53.01327 -40.60419,53.01327 -1.10714,0 35.63239,-50.86652 34.49604,-50.86652 -1.59899,0 -39.88921,53.01312 -39.55885,53.01312 -0.13231,0 39.48882,-54.85588 38.72022,-54.85588 -1.23125,1e-5 -39.52161,53.01318 -40.07746,53.01328 -1.01853,0 36.14683,-51.45548 35.1877,-51.45548 -1.42178,10e-6 -39.71246,53.01308 -40.17526,53.01308 -0.92549,0 35.58157,-50.54343 34.84397,-50.54344 -1.20025,0 -39.49119,53.01294 -39.0722,53.01294 -0.0437,0 41.32072,-57.26831 40.15776,-57.2683 -1.62562,0 -39.91675,53.0133 -39.55979,53.0133 -0.10573,0 36.41537,-50.56267 35.85057,-50.56267 -1.02746,0 -39.3187,53.01307 -39.3251,53.01307 -0.46909,0 36.39521,-51.03738 35.14362,-51.03739 -1.71425,-10e-6 -40.00576,53.01289 -40.39768,53.01289 -0.8546,0 39.57748,-55.97641 38.94621,-55.97641 -1.09394,0 -39.38569,53.01311 -40.05234,53.01321 -1.12935,0 38.1779,-54.41896 37.32507,-54.41896 -1.31549,1e-5 -39.60756,53.01326 -39.70258,53.01326 -0.55772,0 34.9902,-49.21392 33.56134,-49.21393 -1.89151,0 -40.1839,53.01293 -40.69103,53.01293 -0.96984,0 40.08057,-56.83122 38.76691,-56.83122 -1.77633,1e-5 -40.06908,53.01332 -40.45214,53.01332 -0.84577,0 36.418,-51.58858 35.35246,-51.58858 -1.52821,0 -39.82126,53.01318 -40.33727,53.01318 -0.97872,0 37.36934,-53.08916 36.30379,-53.08916 -1.52822,10e-6 -39.8216,53.01316 -39.99196,53.01316 -0.63308,0 37.63292,-52.97516 36.75348,-52.97516 -1.34213,0 -39.63575,53.01316 -39.77066,53.01316 -0.59763,0 35.40464,-49.84085 34.19286,-49.84086 -1.67447,0 -39.96838,53.01296 -40.11216,53.01296 -0.60649,0 39.70446,-55.80533 38.67877,-55.80533 -1.48837,0 -39.78254,53.01313 -39.36794,53.01313 -0.0481,0 37.66972,-52.21532 36.9099,-52.21532 -1.22251,0 -39.51681,53.01312 -39.98408,53.01312 -0.93001,0 36.85672,-52.31028 36.01714,-52.31029 -1.30229,0 -39.59687,53.01309 -39.50577,53.01309 -0.37163,0 37.09971,-51.87337 35.70621,-51.87337 -1.85619,-10e-6 -40.15105,53.01297 -40.51641,53.01297 -0.82809,0 39.00362,-55.14045 38.15959,-55.14045 -1.30673,0 -39.60186,53.01315 -39.24486,53.01315 -0.10575,0 37.43471,-51.96842 36.03676,-51.96842 -1.86064,0 -40.15601,53.01312 -40.29093,53.01312 -0.59765,0 37.42335,-52.63323 36.93825,-52.63323 -0.94781,0 -39.24335,53.01303 -39.28964,53.01303 -0.50902,0 40.2289,-56.39413 39.83242,-56.39413 -0.85919,10e-6 -39.15488,53.01333 -39.32968,53.01333 -0.63754,0 34.73564,-48.96742 34.37017,-48.96742 -0.82817,-10e-6 -39.12401,53.01302 -39.44949,53.01302 -0.78823,0 38.66027,-54.60858 37.27559,-54.60859 -1.84739,0 -40.14359,53.01319 -40.79702,53.01319 -1.11618,0 36.06875,-51.47464 35.06073,-51.47464 -1.47074,-10e-6 -39.76727,53.01304 -39.61413,53.01304 -0.3096,0 38.26136,-53.39293 37.36855,-53.39294 -1.35553,0 -39.65226,53.01304 -39.53899,53.01304 -0.3495,0 40.56795,-56.64096 40.18918,-56.64096 -0.84149,0 -39.13833,53.01336 -39.62336,53.01336 -0.94779,0 34.87938,-49.59439 33.91123,-49.59439 -1.43088,-1e-5 -39.72803,53.01309 -39.64579,53.01309 -0.38052,0 39.63177,-55.38736 39.24857,-55.38736 -0.84593,0 -39.14319,53.01326 -38.87038,53.01326 -0.18996,0 36.96846,-51.43675 36.17312,-51.43675 -1.25806,0 -39.55548,53.01315 -40.15132,53.01315 -1.0586,0 37.76035,-53.73493 37.3151,-53.73493 -0.90798,0 -39.20564,53.01323 -39.42477,53.01323 -0.6819,0 37.3963,-52.70932 36.30847,-52.70932 -1.55056,0 -39.8485,53.01322 -40.14298,53.01322 -0.75724,0 38.70707,-54.62769 37.57492,-54.62769 -1.59489,10e-6 -39.89314,53.01329 -40.29398,53.01329 -0.86362,10e-5 35.1296,-49.82236 33.87778,-49.82237 -1.71455,0 -40.01314,53.01307 -40.64002,53.01307 -1.08965,0 37.62069,-53.58288 37.05577,-53.58288 -1.02766,-10e-6 -39.3265,53.01318 -39.01823,53.01318 -0.1545,0 38.41875,-53.39305 37.80065,-53.39305 -1.08084,0 -39.37981,53.01315 -39.04494,53.01315 -0.12791,0 38.28081,-53.1651 37.6893,-53.1651 -1.05426,0 -39.35334,53.0132 -38.97858,53.0132 -0.088,0 37.60731,-52.1775 36.89171,-52.1775 -1.17835,-10e-6 -39.47756,53.0131 -39.18258,53.0131 -0.1678,0 40.29931,-56.01402 38.89236,-56.01402 -1.86971,10e-6 -40.16917,53.01332 -40.39274,53.01332 -0.68636,10e-5 35.44526,-50.01242 35.06646,-50.01242 -0.84155,0 -39.14118,53.01312 -39.316,53.01312 -0.63761,0 39.73396,-55.88105 38.72585,-55.88105 -1.47087,0 -39.77077,53.01335 -40.04753,53.01335 -0.73955,0 35.74926,-50.5063 34.89182,-50.5063 -1.3202,0 -39.62035,53.0132 -39.57799,53.0132 -0.42044,0 40.44556,-56.56484 39.32664,-56.56483 -1.58168,10e-6 -39.88208,53.01343 -40.45136,53.01343 -1.03209,0 34.01656,-48.51219 33.08376,-48.5122 -1.39555,0 -39.69626,53.0131 -39.87109,53.0131 -0.63762,0 40.50339,-56.94453 39.58389,-56.94452 -1.38227,0 -39.68322,53.01342 -39.72508,53.01342 -0.50466,0 35.05214,-49.21496 34.42071,-49.21497 -1.0942,0 -39.39534,53.01317 -39.66324,53.01317 -0.73072,0 38.33888,-54.07673 37.60551,-54.07674 -1.19614,0 -39.49752,53.01324 -39.28673,53.01324 -0.25203,0 37.96702,-52.89929 37.49957,-52.89929 -0.93023,0 -39.23171,53.01319 -38.90569,53.01319 -0.13678,0 38.75469,-53.82984 37.82631,-53.82985 -1.39116,0 -39.69281,53.01325 -40.0671,53.01325 -0.8371,0 36.60023,-51.81676 35.93777,-51.81676 -1.12525,0 -39.42714,53.01316 -39.3449,53.01316 -0.38056,0 37.74298,-52.76627 36.35366,-52.76627 -1.85211,-10e-6 -40.15429,53.01317 -40.69701,53.01317 -1.00555,0 39.6156,-56.22277 39.01961,-56.22277 -1.05878,0 -39.36122,53.01347 -39.21248,53.01347 -0.31409,0 36.89068,-51.49414 36.07751,-51.49414 -1.27596,0 -39.57857,53.01334 -39.19491,53.01334 -0.0792,0 36.64551,-50.82932 35.40685,-50.82933 -1.70145,0 -40.00427,53.01313 -39.65164,53.01313 -0.11019,0 39.05703,-54.20959 37.89371,-54.20959 -1.62611,0 -39.92913,53.01319 -39.62969,53.01319 -0.16338,0 38.67475,-53.75385 37.26766,-53.75385 -1.86989,0 -40.173171,53.01335 -40.339141,53.01335 -0.628805,0 38.099881,-53.60208 37.282261,-53.60208 -1.28042,0 -39.583923,53.01338 -39.510535,53.01338 -0.38945,0 38.421755,-53.71605 38.029625,-53.71605 -0.85493,0 -39.158559,53.01345 -39.355559,53.01345 -0.659839,0 35.777809,-50.43067 34.379549,-50.43068 -1.86105,0 -40.165015,53.01318 -40.091626,53.01318 -0.389454,0 40.356866,-56.39355 39.876086,-56.39355 -0.94359,0 -39.247687,53.01345 -39.772704,53.01345 -0.987863,10e-5 36.740074,-52.21583 35.355104,-52.21582 -1.84779,0 -40.152269,53.01342 -40.411331,53.01342 -0.72191,0 38.200091,-53.86799 36.943641,-53.86799 -1.71926,1e-5 -40.024057,53.01349 -39.635944,53.01349 -0.07474,0 37.983054,-52.67166 36.926054,-52.67165 -1.51982,0 -39.824793,53.01345 -39.950875,53.01345 -0.588937,0 37.249575,-52.36777 36.392035,-52.36777 -1.32037,0 -39.625574,53.01347 -39.277352,53.01347 -0.114636,0 36.873332,-51.19041 36.197512,-51.19041 -1.13864,0 -39.44397,53.01331 -39.326251,53.01331 -0.34514,0 38.810911,-54.1907 38.445351,-54.1907 -0.82837,0 -39.133816,53.0134 -39.472675,53.0134 -0.801719,0 37.503815,-53.0134 36.043445,-53.0134 -1.9232,0 -40.229009,53.0134 -39.832021,53.0134 -0.06588,0 38.034091,-52.72855 37.163231,-52.72855 -1.33369,0 -39.639649,53.01335 -40.053871,53.01335 -0.877088,0 37.881761,-53.64001 36.576511,-53.64001 -1.76809,0 -40.074394,53.01341 -40.218214,53.01341 -0.60669,0 36.053154,-50.73465 35.226606,-50.73465 -1.289384,-10e-6 -39.595916,53.01325 -39.792931,53.01325 -0.659888,0 37.276246,-52.50055 36.374338,-52.50055 -1.364746,-10e-6 -39.671528,53.01325 -39.828646,53.01325 -0.619995,0 38.112196,-53.60193 37.165956,-53.60193 -1.40908,-1e-5 -39.716111,53.01323 -39.660448,53.01323 -0.407217,0 38.627052,-54.01967 37.955631,-54.01967 -1.134264,0 -39.441466,53.01337 -39.119824,53.01337 -0.141239,0 36.985941,-51.3803 35.685082,-51.38031 -1.763704,0 -40.071137,53.01321 -39.660833,53.01321 -0.05258,0 38.91343,-53.92469 38.162215,-53.92469 -1.214062,0 -39.521624,53.01329 -39.887099,53.01329 -0.828361,0 36.86185,-52.15879 36.34113,-52.1588 -0.98357,0 -39.291345,53.0132 -39.124855,53.0132 -0.296398,0 39.191391,-54.64625 38.803651,-54.64625 -0.850591,0 -39.158476,53.01335 -39.249104,53.01335 -0.553517,0 37.850465,-53.14627 37.316444,-53.14627 -0.996875,0 -39.304934,53.01337 -39.479791,53.01337 -0.637748,0 37.642932,-52.9754 37.179832,-52.9754 -0.925956,0 -39.23419,53.0134 -39.22729,53.0134 -0.455994,0 36.727156,-51.45633 36.029117,-51.45633 -1.160897,0 -39.469315,53.01323 -39.107764,53.01323 -0.101346,0 40.99241,-56.86793 39.88212,-56.86792 -1.573151,0 -39.881763,53.01362 -40.256114,53.01362 -0.83725,0 35.523078,-50.31724 34.541331,-50.31725 -1.444611,0 -39.753513,53.01335 -39.396391,53.01335 -0.10578,0 38.779382,-53.81086 37.416405,-53.81086 -1.825843,0 -40.13498,53.01346 -39.97735,53.01346 -0.305275,0 37.756894,-52.67167 37.293782,-52.67167 -0.92598,0 -39.235239,53.01337 -39.259371,53.01337 -0.487039,0 37.383189,-52.40575 36.689565,-52.40575 -1.156495,-10e-6 -39.465942,53.01335 -39.654105,53.01335 -0.651071,0 38.536585,-54.22859 37.226781,-54.22859 -1.772677,0 -40.082437,53.01349 -39.853873,53.01349 -0.234348,0 37.924481,-52.80462 36.734359,-52.80462 -1.652998,0 -39.962986,53.01342 -39.761021,53.01342 -0.260948,0 39.40742,-54.89323 38.164095,-54.89322 -1.706204,10e-6 -40.016433,53.01362 -40.062732,53.01362 -0.509217,0 37.636401,-52.78576 36.291108,-52.78575 -1.808175,0 -40.118699,53.01365 -39.814763,53.01365 -0.158984,0 35.709191,-49.63385 34.736265,-49.63386 -1.435812,0 -39.7465166,53.01336 -40.1120213,53.01336 -0.8284281,0 37.7705113,-53.4121 36.3808683,-53.4121 -1.852531,-10e-6 -39.5630589,52.1824 -39.5717514,51.75 -0.021222,-1.0556 38.5212484,-54.38925 37.2158224,-54.38925 -1.768318,10e-6 -35.334004,46.44695 -35.334004,45.73265 0,-1.3549 31.658743,-45.16302 30.468567,-45.16302 -1.653073,0 -30.8801964,40.44322 -30.8801964,40.91282 0,-0.1709 30.3348604,-42.14698 29.6544924,-42.14698 -1.143266,10e-6 -28.7626286,38.21848 -28.7626286,38.76168 0,-0.097 26.8713966,-37.28068 25.4950166,-37.28068 -1.839281,0 -26.5652532,34.21448 -26.5652532,34.27318 0,-0.582 24.8280332,-34.93772 23.9259982,-34.93772 -1.364939,0 -23.4457638,30.55422 -23.4457638,29.87062 0,-1.3242 18.9832918,-27.59221 17.7132888,-27.59221 -1.732911,0 -19.3598066,24.39091 -19.3598066,23.57841 0,-1.453 17.8008376,-26.08464 16.4421566,-26.08463 -1.821592,0 -14.6309871,17.72473 -14.6309871,17.72823 0,-0.6372 12.7904841,-18.33579 11.8485261,-18.33579 -1.404872,10e-6 -11.4094547,13.84369 -11.4094547,13.93909 0,-0.5451 6.7844707,-9.93298 6.4011097,-9.93298 -0.846279,-10e-6 -9.2962367,11.69238 -9.2962367,11.18658 0,-1.1463 7.1462685,-11.0347 6.51907,-11.0347 -1.0901182,-10e-6 -6.6288379,7.664 -6.6288379,7.3239 0,-0.9807 7.0539706,-10.7414 6.6883385,-10.7414 -0.8285542,0 -4.2185618,4.69082 -4.2185618,4.49792 0,-0.83344 1.4271133,-2.80816 0.7688751,-2.80816 -1.1211625,-1e-5 -1.9900425,1.20227 -1.9900425,1.4204 0,-0.42244 0.8550589,-1.81911 0.8550589,-1.81911 0,0 -1.4404874,1.7797 -1.4404874,2.62917 0,1.49003 2.1033446,-1.4204 1.9900425,-1.4204 0.349622,0 -0.7688752,1.54768 -0.7688752,2.80817 0,1.90101 4.6244666,-4.49792 4.2185618,-4.49792 0.057017,0 -6.6883384,9.33363 -6.6883384,10.74133 0,2.0483 6.7731725,-7.32383 6.6288379,-7.32383 0.3185852,0 -6.5190701,9.46133 -6.5190701,11.03473 0,2.2139 9.6844033,-11.1866 9.2962363,-11.18661 0.07475,0 -6.4011092,8.96081 -6.4011092,9.93301 0,1.6127 11.2390232,-13.9391 11.4094552,-13.9391 0.633347,-10e-6 -11.8485266,17.2715 -11.8485266,18.3357 0,1.7048 14.0438276,-17.72814 14.6309876,-17.72814 1.050072,0 -16.4421571,24.20454 -16.4421571,26.08464 0,2.5206 18.8613161,-23.57842 19.3598061,-23.57842 0.961399,10e-6 -17.7132884,25.84092 -17.7132884,27.59212 0,2.3918 23.3152344,-29.87051 23.4457634,-29.87051 0.593433,0 -23.9259977,33.92871 -23.9259977,34.93761 0,1.6495 25.9603747,-34.27307 26.5652527,-34.27307 1.06778,0 -25.4950162,36.75637 -25.4950162,37.28067 0,1.1649 28.8537592,-38.76166 28.7626292,-38.76166 0.371768,0 -29.654493,41.54896 -29.654493,42.14696 0,1.2385 30.461515,-40.9128 30.880196,-40.9128 0.881578,0 -30.4685665,43.381 -30.4685665,45.1629 0,2.4225 34.8000655,-45.73252 35.3340035,-45.73252 0.996831,0 -37.2453963,52.91812 -37.215822,54.38922 0.042103,2.0943 38.95359,-51.74998 39.571752,-51.74998 1.08105,10e-6 -37.5179125,53.41198 -36.3808689,53.41208 1.599967,0 39.9105689,-53.01332 40.1120209,-53.01332 0.664337,0 -35.2038627,49.63372 -34.736265,49.63372 0.930519,0 39.240941,-53.01351 39.814763,-53.01351 1.036705,0 -37.108936,52.78571 -36.291108,52.78571 1.280746,0 39.590872,-53.01357 40.062732,-53.01357 0.93474,0 -38.733652,54.89317 -38.164094,54.89317 1.032472,0 39.342359,-53.01337 39.761021,-53.01337 0.881538,0 -37.277315,52.80457 -36.73436,52.80457 1.005867,0 39.315525,-53.01344 39.853874,-53.01344 1.001222,10e-6 -38.186458,54.22854 -37.226782,54.22854 1.422585,0 39.731931,-53.01329 39.654105,-53.01329 0.385044,0 -37.485207,52.40569 -36.689565,52.40569 1.258548,0 39.567706,-53.01331 39.259371,-53.01331 0.154534,0 -37.907659,52.67161 -37.293782,52.67161 1.076782,0 39.385816,-53.01339 39.977351,-53.01339 1.054399,0 -37.830786,53.81079 -37.416406,53.81079 0.877282,0 39.186082,-53.01327 39.396391,-53.01327 0.673172,0 -35.687179,50.31717 -34.541331,50.31717 1.608747,0 39.917256,-53.01354 40.256114,-53.01354 0.801718,0 -40.292062,56.86794 -39.88212,56.86794 0.872838,0 39.181155,-53.01325 39.107764,-53.01325 0.389467,0 -36.793706,51.45625 -36.029116,51.45625 1.227483,0 39.535616,-53.01331 39.22729,-53.01331 0.154529,0 -38.126175,52.97531 -37.179832,52.97531 1.409234,0 39.717192,-53.01328 39.47979,-53.01328 0.225452,0 -38.178553,53.14628 -37.316443,53.14628 1.324999,0 39.632783,-53.01335 39.249104,-53.01336 0.07917,0 -39.408642,54.64626 -38.803652,54.64626 1.067878,0 39.375553,-53.0132 39.124856,-53.0132 0.212152,0 -37.478082,52.1587 -36.341131,52.1588 1.599838,0 39.907297,-53.01329 39.8871,-53.01329 0.44265,0 -38.523384,53.92469 -38.162216,53.92469 0.824053,0 39.131384,-53.01321 39.660834,-53.0132 0.992295,0 -36.134909,51.3802 -35.685083,51.3802 0.912708,0 39.219809,-53.01326 39.119825,-53.01326 0.362859,0 -38.671435,54.01966 -37.955632,54.01966 1.178682,0 39.485611,-53.01322 39.660449,-53.01322 0.637679,0 -38.094536,53.60182 -37.165957,53.60182 1.391456,0 39.698135,-53.01314 39.828646,-53.01313 0.59335,0 -37.342807,52.50053 -36.374337,52.50053 1.431344,0 39.737774,-53.01323 39.79293,-53.01323 0.517992,0 -36.141876,50.73463 -35.226605,50.73463 1.378142,0 39.684342,-53.01338 40.218212,-53.01338 0.9967,0 -37.762176,53.63998 -36.576509,53.63998 1.648533,0 39.954389,-53.01331 40.053869,-53.01331 0.56231,0 -37.537681,52.72851 -37.163229,52.72851 0.837316,0 39.143019,-53.01336 39.832019,-53.01336 1.15182,0 -37.153736,53.01336 -36.043443,53.01336 1.573153,0 39.878493,-53.01336 39.472683,-53.01336 0.057,0 -39.099072,54.19066 -38.44536,54.19066 1.116572,0 39.4218,-53.01326 39.32625,-53.01326 0.36728,0 -36.620718,51.19036 -36.197511,51.19036 0.886065,0 39.191171,-53.01342 39.277351,-53.01342 0.549,0 -37.289541,52.36772 -36.392034,52.36772 1.360362,0 39.665234,-53.01339 39.950874,-53.01339 0.74845,-10e-6 -37.30936,52.67159 -36.926053,52.67159 0.84616,0 39.150853,-53.01343 39.635943,-53.01343 0.94791,0 -37.974116,53.86793 -36.943639,53.86793 1.493326,0 39.797699,-53.01336 40.411329,-53.01336 1.07643,0 -36.651529,52.21586 -35.355103,52.21586 1.759271,-10e-5 40.063273,-53.01347 39.772703,-53.01347 0.17224,0 -40.5741,56.39347 -39.876084,56.39347 1.160858,0 39.464714,-53.01311 40.091634,-53.0131 1.08971,0 -35.347956,50.4306 -34.379558,50.4306 1.431237,0 39.734768,-53.01336 39.355568,-53.01336 0.0836,0 -38.727641,53.71596 -38.029634,53.71596 1.160846,0 39.464254,-53.01329 39.510544,-53.01329 0.50908,0 -38.219631,53.60199 -37.282269,53.60199 1.400199,0 39.703369,-53.01326 40.339139,-53.01326 1.09856,0 -37.7396,53.75386 -37.26766,53.75386 0.93478,0 39.2377,-53.0132 39.6297,-53.0132 0.85478,10e-6 -38.31246,54.2095 -37.89372,54.2095 0.88158,0 39.1843,-53.01303 39.65164,-53.01303 0.93013,10e-6 -35.79457,50.82923 -35.40685,50.82923 0.85055,0 39.15306,-53.01324 39.19491,-53.01324 0.50465,0 -36.70014,51.49404 -36.07751,51.49404 1.08546,0 39.3878,-53.01336 39.21248,-53.01336 0.28747,0 -40.3337,56.22266 -39.01961,56.22266 1.77691,0 40.07899,-53.01307 40.69701,-53.01306 1.0808,0 -37.04277,52.76626 -36.35365,52.76626 1.15193,0 39.45372,-53.01314 39.34489,-53.01314 0.35394,0 -37.08341,51.81674 -35.93777,51.81674 1.60846,0 39.91002,-53.01322 40.0671,-53.01322 0.61987,0 -38.27163,53.82982 -37.8263,53.82982 0.90814,0 39.20952,-53.01316 38.90568,-53.01316 0.15894,0 -38.06014,52.89916 -37.49957,52.89916 1.02338,0 39.32465,-53.01311 39.28673,-53.01311 0.42485,10e-6 -38.64476,54.07661 -37.60551,54.07661 1.50206,0 39.8031,-53.01303 39.66324,-53.01303 0.32292,0 -35.23391,49.21493 -34.42071,49.21493 1.27601,0 39.57686,-53.01338 39.72508,-53.01338 0.61099,0 -40.53005,56.94448 -39.58388,56.94448 1.40896,0 39.70957,-53.01306 39.87109,-53.01305 0.62428,0 -34.4244,48.51215 -33.08377,48.51215 1.80342,0 40.10371,-53.01338 40.45136,-53.01338 0.81042,0 -40.05561,56.56478 -39.32664,56.56478 1.19177,0 39.49182,-53.01315 39.57799,-53.01315 0.54893,1e-5 -35.9399,50.50625 -34.89181,50.50625 1.51087,0 39.81067,-53.01329 40.04752,-53.01329 0.69961,0 -39.67198,55.88099 -38.72585,55.88099 1.40893,0 39.70847,-53.01306 39.316,-53.01306 0.0703,0 -36.06135,50.01246 -35.06646,50.01246 1.45768,0 39.75704,-53.01334 40.39274,-53.01334 1.09846,-10e-6 -39.36868,56.01394 -38.89236,56.01394 0.93911,0 39.23823,-53.01303 39.18258,-53.01303 0.4071,0 -37.28826,52.17743 -36.89171,52.17743 0.85933,0 39.15831,-53.01312 38.97858,-53.01312 0.28301,0 -38.12573,53.16502 -37.6893,53.16502 0.89922,0 39.19809,-53.01307 39.04494,-53.01307 0.30961,0 -38.26367,53.39297 -37.80064,53.39297 0.9258,0 39.22455,-53.0131 39.01823,-53.0131 0.25642,0 -38.45395,53.5828 -37.05577,53.5828 1.86095,0 40.15943,-53.01298 40.64001,-53.01298 0.94333,10e-6 -35.04992,49.82238 -33.87778,49.82238 1.63491,0 39.93305,-53.01329 40.29398,-53.01329 0.82366,0 -38.64068,54.62759 -37.57492,54.62759 1.52854,0 39.82638,-53.01312 40.14298,-53.01312 0.77934,0 -37.29888,52.70922 -36.30847,52.70922 1.45318,0 39.75074,-53.01312 39.42477,-53.01312 0.13676,0 -38.68221,53.73482 -37.3151,53.73482 1.82988,0 40.1272,-53.01304 40.15132,-53.01304 0.48685,0 -36.67159,51.43674 -36.17312,51.43674 0.96122,0 39.25839,-53.01325 38.87038,-53.01325 0.0747,0 -39.93759,55.38725 -39.24856,55.38725 1.15179,0 39.44883,-53.01297 39.64578,-53.01297 0.65967,0 -35.16752,49.59437 -33.91123,49.59437 1.71906,-10e-5 40.01579,-53.01334 39.62336,-53.01334 0.0703,0 -40.84718,56.64094 -40.18918,56.64094 1.12075,0 39.41737,-53.01301 39.53899,-53.01301 0.58433,0 -37.98665,53.39281 -37.36854,53.39281 1.08086,0 39.37729,-53.01291 39.61412,-53.01291 0.69954,0 -36.48541,51.47451 -35.06073,51.47451 1.88744,0 40.18352,-53.01305 40.79702,-53.01305 1.07621,10e-6 -38.37231,54.60855 -37.27559,54.60855 1.55947,0 39.85521,-53.01298 39.4495,-53.01298 0.057,0 -35.31622,48.96738 -34.37017,48.96738 1.40878,0 39.70437,-53.01328 39.32967,-53.01328 0.088,0 -40.64993,56.39408 -39.83241,56.39408 1.28026,0 39.5757,-53.01298 39.28963,-53.01298 0.17663,0 -37.84439,52.63308 -36.93825,52.63308 1.36889,0 39.66416,-53.01297 40.29093,-53.01296 1.08948,0 -36.451,51.96836 -36.03676,51.96836 0.87697,0 39.172,-53.01309 39.24486,-53.01309 0.53557,0 -39.29616,55.14039 -38.15958,55.14039 1.59931,0 39.89407,-53.01291 40.51641,-53.01291 1.08503,10e-6 -36.38634,51.87331 -35.70622,51.87331 1.14286,0 39.43733,-53.01302 39.50577,-53.01302 0.53112,10e-6 -37.25563,52.31022 -36.01714,52.31022 1.70121,0 39.99541,-53.01304 39.98408,-53.01304 0.45136,0 -37.26652,52.21534 -36.9099,52.21534 0.81934,0 39.1134,-53.01315 39.36794,-53.01315 0.71723,0 -39.59374,55.80525 -38.67876,55.80525 1.3777,0 39.6715,-53.01288 40.11215,-53.01287 0.90333,0 -35.09897,49.84087 -34.19286,49.84087 1.36883,0 39.66235,-53.01316 39.77066,-53.01316 0.57099,-10e-6 -37.69503,52.97516 -36.75348,52.97516 1.40427,0 39.69755,-53.01316 39.99196,-53.01316 0.7571,0 -37.59098,53.08906 -36.30379,53.08906 1.74991,0 40.04286,-53.01307 40.33727,-53.01307 0.75709,0 -36.5067,51.58847 -35.35246,51.58847 1.61696,0 39.9096,-53.0132 40.45214,-53.0132 1.00522,-10e-6 -40.04522,56.8312 -38.76691,56.8312 1.74101,0 40.03329,-53.01292 40.69103,-53.01291 1.12041,0 -34.42753,49.21391 -33.56134,49.21391 1.32889,0 39.62086,-53.01323 39.70258,-53.01323 0.54439,0 -38.76288,54.41883 -37.32507,54.41883 1.90051,0 40.19216,-53.01308 40.05234,-53.01308 0.32284,0 -40.10927,55.97638 -38.9462,55.97638 1.62576,0 39.91717,-53.01286 40.39767,-53.01285 0.94315,0 -35.92117,51.03735 -35.14362,51.03735 1.24024,0 39.53138,-53.01303 39.3251,-53.01303 0.25637,0 -36.26476,50.56253 -35.85057,50.56253 0.87688,0 39.16791,-53.01316 39.55979,-53.01316 0.85452,0 -40.50991,57.26826 -40.15776,57.26826 0.81484,0 39.10568,-53.01289 39.0722,-53.01289 0.42917,0 -36.07791,50.54339 -34.84397,50.54339 1.69663,0 39.9872,-53.01302 40.17526,-53.01302 0.6507,0 -36.51469,51.45542 -35.1877,51.45532 1.78967,0 40.07993,-53.01312 40.07746,-53.01312 0.46018,0 -39.16098,54.85582 -38.72021,54.85582 0.90344,0 39.19356,-53.01305 39.55884,-53.01305 0.82792,0 -35.91163,50.86645 -34.49604,50.86645 1.87827,0 40.16802,-53.0132 40.60419,-53.0132 0.89881,0 -37.93969,53.773 -37.09127,53.773 1.31108,0 39.60056,-53.01309 40.20066,-53.01309 1.06273,0 -37.39127,53.24109 -36.50299,53.24109 1.35095,0 39.64012,-53.01312 40.07628,-53.01312 0.89879,0 -37.28051,52.86112 -36.51186,52.86112 1.23131,0 39.52021,-53.01311 40.11144,-53.01311 1.05385,0 -39.29307,55.86261 -38.8789,55.86261 0.87682,0 39.16549,-53.01287 39.72127,-53.01287 1.01841,0 -36.7213,52.25297 -36.1299,52.25297 1.05406,0 39.34247,-53.0129 39.61026,-53.01289 0.73042,0 -37.25606,52.59499 -36.80202,52.59499 0.9167,0 39.20492,-53.01296 39.26005,-53.01296 0.51775,1e-5 -36.89228,51.79716 -36.28317,51.79716 1.07177,0 39.35982,-53.01306 39.06937,-53.01306 0.17217,0 -38.50007,53.54496 -37.28394,53.54496 1.67879,0 39.96661,-53.013 40.14579,-53.013 0.6418,0 -39.66295,55.8056 -39.0627,55.8056 1.0629,0 39.35052,-53.01278 39.95059,-53.01278 1.06268,1e-5 -36.08597,51.43598 -34.96733,51.43598 1.58128,0 39.86856,-53.01286 40.41989,-53.01286 1.01394,0 -36.29903,51.66406 -35.845,51.66406 0.91667,0 39.20371,-53.01299 39.07276,-53.01299 0.33166,0 -38.65514,53.98189 -38.14351,53.98189 0.97426,0 39.26117,-53.01293 39.56883,-53.01293 0.77026,0 -36.13075,51.09413 -34.87035,51.09413 1.72304,0 40.00962,-53.01305 40.27741,-53.01305 0.73038,0 -38.20102,53.90595 -37.17545,53.90595 1.4882,0 39.77451,-53.01298 39.46192,-53.01298 0.15002,0 -39.13793,54.39978 -38.22757,54.39978 1.373,0 39.65914,-53.01282 39.39529,-53.01282 0.19874,0 -36.85251,51.30302 -35.45922,51.30302 1.85593,0 40.14181,-53.01298 40.68426,-53.01298 1.00504,0 -37.5963,53.44998 -36.78342,53.44998 1.27551,0 39.5611,-53.01298 40.01937,-53.01298 0.92086,0 -39.02486,55.31178 -37.91514,55.31178 1.57234,0 39.85761,-53.01279 40.32474,-53.01279 0.92971,0 -34.50149,49.06109 -33.18354,49.06109 1.78055,0 40.06546,-53.01309 40.31109,-53.01309 0.7082,-10e-6 -38.82525,54.74189 -38.27821,54.74189 1.00965,0 39.29436,-53.01288 39.10583,-53.01288 0.27405,0 -37.37949,52.13898 -35.93751,52.13898 1.90459,0 40.18902,-53.013 39.78343,-53.01299 0.057,0 -37.7061,52.29099 -36.9021,52.29099 1.2666,0 39.5509,-53.01301 39.62375,-53.01301 0.53541,-10e-6 -39.62861,55.61591 -38.39045,55.61591 1.70077,0 39.98479,-53.01285 40.57151,-53.01284 1.0493,0 -37.23459,53.01284 -36.75402,53.01284 0.94317,0 39.22694,-53.01284 38.86565,-53.01284 0.10127,0 -37.75717,52.42384 -37.36521,52.42384 0.85456,0 39.13826,-53.01286 38.96302,-53.01286 0.28734,0 -38.29821,53.43086 -37.91511,53.43086 0.8457,0 39.12929,-53.01284 38.70598,-53.01284 0.0392,0 -36.29599,50.31494 -35.86859,50.31494 0.89,0 39.17352,-53.01305 38.96727,-53.01305 0.25632,0 -39.35812,54.85595 -38.6206,54.85595 1.20012,0 39.48347,-53.01287 40.17207,-53.01287 1.15117,0 -39.12159,55.76777 -37.79928,55.76777 1.7849,0 40.06786,-53.01262 40.10084,-53.01262 0.49553,0 -34.89227,49.00372 -33.78262,49.00372 1.57224,0 39.85494,-53.01295 40.53467,-53.01295 1.14228,0 -39.54145,56.33795 -38.75521,56.33795 1.24882,0 39.53122,-53.01272 39.2098,-53.01273 0.14114,10e-6 -37.90802,52.68973 -37.4319,52.68973 0.93871,0 39.22101,-53.01274 39.70582,-53.01274 0.94736,10e-6 -36.15482,51.37874 -34.78382,51.37874 1.83359,0 40.11552,-53.01285 40.64462,-53.01285 0.99165,0 -37.74295,53.63985 -36.73966,53.63985 1.46587,0 39.74749,-53.0128 39.58555,-53.0128 0.30061,0 -38.29658,53.4498 -36.89016,53.4498 1.869,0 40.15034,-53.01274 40.75031,-53.01274 1.06251,0 -38.0694,54.19074 -37.63316,54.19074 0.8988,0 39.17991,-53.01262 38.98697,-53.01262 0.26959,0 -36.06313,50.31462 -34.90037,50.31462 1.62532,0 39.90619,-53.0129 39.76641,-53.0129 0.32275,0 -37.91695,52.9559 -37.13075,52.9559 1.24877,0 39.52947,-53.0129 39.19921,-53.0129 0.13227,0 -40.20659,55.863 -39.47798,55.863 1.19117,0 39.47173,-53.01267 39.29651,-53.01267 0.28731,0 -37.3758,52.15757 -36.16433,52.15757 1.67403,0 39.95435,-53.01266 40.48786,-53.01266 0.99604,10e-6 -38.17603,54.24776 -37.66006,54.24776 0.97852,0 39.2586,-53.01259 38.9505,-53.01259 0.15441,0 -37.19265,51.72049 -36.29129,51.72059 1.36392,0 39.64383,-53.01275 39.72553,-53.01275 0.54421,10e-6 -38.33938,53.84875 -37.20324,53.84875 1.59869,0 39.87834,-53.01262 40.10178,-53.01262 0.68596,10e-6 -36.98989,52.17662 -36.07526,52.17662 1.37719,0 39.65658,-53.01272 39.98633,-53.01272 0.79226,0 -37.80263,53.44972 -37.33097,53.44972 0.9342,0 39.21339,-53.01265 39.81333,-53.01264 1.06244,0 -35.55637,50.71344 -34.54872,50.71344 1.47019,0 39.74905,-53.0128 39.97692,-53.0128 0.69037,0 -38.83703,54.742 -37.80723,54.742 1.49233,0 39.77092,-53.01271 40.41071,-53.01271 1.1023,1e-5 -37.57406,53.56371 -36.36266,53.56371 1.67394,0 39.95216,-53.01259 40.60523,-53.01259 1.11558,0 -36.09226,51.53049 -35.0492,51.53049 1.5056,0 39.78347,-53.01275 40.29038,-53.01275 0.96939,0 -36.80068,52.30965 -35.38554,52.30965 1.87767,0 40.15516,-53.01278 40.67978,-53.01278 0.9871,0 -37.05701,52.68978 -36.29303,52.68978 1.2265,0 39.50372,-53.01285 39.64299,-53.01285 0.60176,0 -37.3461,52.55675 -36.50239,52.55675 1.30624,0 39.58322,-53.01285 39.65605,-53.01285 0.53532,0 -39.77232,55.82525 -38.65399,55.82525 1.58085,0 39.85758,-53.01265 39.77981,-53.01265 0.38473,10e-6 -35.46336,49.64915 -34.92086,49.64915 1.00501,0 39.28158,-53.01288 38.9735,-53.01288 0.15441,0 -38.32799,53.29788 -37.66591,53.29788 1.12461,0 39.40105,-53.01282 39.10626,-53.01282 0.16769,0 -38.49295,53.54492 -37.22845,53.54492 1.727,0 40.00322,-53.0128 39.89446,-53.0128 0.35371,0 -39.80226,55.6162 -38.97629,55.6162 1.28848,0 39.56451,-53.0126 39.75692,-53.01259 0.65489,0 -36.90758,52.02439 -35.77156,52.02439 1.59854,0 39.87428,-53.01262 40.51845,-53.01261 1.10665,0 -36.97686,52.74661 -36.07117,52.74661 1.36819,0 39.64361,-53.01268 39.42412,-53.01268 0.24298,0 -38.77337,54.03888 -37.47348,54.03888 1.7624,0 40.03757,-53.01261 40.50901,-53.01261 0.9339,10e-6 -38.02721,53.96281 -37.06396,53.96281 1.42576,0 39.70063,-53.01254 40.08348,-53.01254 0.84532,0 -35.33015,50.10494 -34.20302,50.10494 1.58963,0 39.86418,-53.01271 40.46848,-53.01271 1.06675,0 -36.85093,52.51861 -36.36162,52.51861 0.9518,0 39.22611,-53.01275 39.86141,-53.01275 1.09775,0 -39.9069,56.79455 -39.55047,56.79455 0.81891,0 39.09299,-53.01248 39.50684,-53.01248 0.8763,1e-5 -34.26929,48.67958 -33.66926,48.67958 1.06252,0 39.33637,-53.01282 39.83436,-53.01282 0.96044,0 -37.38189,53.10782 -36.81287,53.10782 1.03151,0 39.30511,-53.0128 39.8031,-53.0128 0.96044,0 -39.1105,55.5023 -38.03655,55.5023 1.53642,0 39.8097,-53.01254 40.14825,-53.01254 0.80099,0 -35.97661,50.94114 -34.77866,50.94114 1.66042,0 39.93338,-53.01278 40.49337,-53.01278 1.02242,0 -40.03578,56.87068 -39.44905,56.87068 1.0492,0 39.32191,-53.01246 39.51431,-53.01245 0.65483,0 -35.44989,50.00975 -34.55756,50.00975 1.3548,0 39.62725,-53.01271 39.91708,-53.01271 0.75226,0 -37.68477,53.24071 -36.99175,53.24071 1.15549,0 39.42771,-53.01263 39.90354,-53.01263 0.93826,0 -37.92386,53.82983 -37.47444,53.82983 0.91189,0 39.18389,-53.01255 39.70843,-53.01255 0.98697,0 -35.28165,50.23785 -33.89772,50.23785 1.84638,0 40.11801,-53.01281 40.3724,-53.01281 0.71681,0 -40.55963,57.17491 -39.16243,57.17491 1.85966,0 40.13095,-53.01244 39.81406,-53.01244 0.14552,0 -35.20321,48.96434 -33.96103,48.96434 1.70463,0 39.9757,-53.01279 40.35852,-53.01279 0.84523,0 -39.64854,56.09159 -38.73854,56.09169 1.37246,0 39.64325,-53.01256 40.27849,-53.01256 1.09764,10e-6 -35.22463,50.31376 -34.08433,50.31376 1.60274,0 39.87318,-53.01277 40.07885,-53.01277 0.66808,0 -40.26416,56.69987 -39.47374,56.69987 1.25286,0 39.52306,-53.01246 40.19371,-53.01245 1.13306,0 -35.14746,50.25655 -34.44562,50.25655 1.16427,0 39.43418,-53.01262 39.35644,-53.01262 0.38465,0 -39.44943,55.17932 -38.73874,55.17932 1.17313,0 39.44286,-53.01246 39.0507,-53.01246 0.0702,0 -37.0058,51.35896 -35.73709,51.35896 1.73113,0 40.00066,-53.01261 39.61293,-53.01261 0.0747,0 -40.14326,55.71141 -39.43258,55.71141 1.17311,10e-5 39.44251,-53.01232 40.0733,-53.01231 1.09318,0 -34.99445,49.99041 -34.05348,49.99041 1.4034,0 39.67247,-53.01264 39.27146,-53.01264 0.0614,0 -40.0875,55.61644 -38.72581,55.61644 1.82411,0 40.09295,-53.01235 40.1082,-53.01235 0.47764,0 -37.64024,52.80335 -37.21743,52.80335 0.88524,0 39.15394,-53.01243 39.23561,-53.01243 0.54406,10e-6 -38.08134,53.50663 -37.72939,53.50663 0.81438,0 39.08294,-53.01241 38.84135,-53.01241 0.22079,0 -37.63614,52.44221 -37.0539,52.44221 1.04466,0 39.31309,-53.01244 39.08921,-53.01244 0.23851,0 -37.37131,52.10004 -36.16022,52.10004 1.6735,10e-5 39.9417,-53.01242 40.20493,-53.01242 0.72561,0 -38.53043,54.38092 -37.59391,54.38092 1.39892,1e-4 39.66686,-53.01231 39.54926,-53.01231 0.34479,0 -38.15639,53.33551 -37.37931,53.33551 1.23949,0 39.50725,-53.01235 40.16458,-53.01235 1.1197,10e-6 -36.55791,52.19505 -35.49742,52.19505 1.52291,0 39.79032,-53.0124 39.76572,-53.0124 0.43776,1e-5 -35.0031,49.0969 -34.03117,49.0969 1.43432,0 39.70151,-53.01269 39.4555,-53.01269 0.21636,0 -40.1913,55.97779 -39.45852,55.97779 1.19519,0 39.46222,-53.01241 39.74758,-53.01241 0.74773,0 -38.49342,54.36201 -37.83592,54.36201 1.1199,0 39.38671,-53.01237 39.37539,-53.01237 0.45104,0 -38.02155,53.29747 -36.72637,53.29747 1.75757,0 40.02411,-53.01232 39.62755,-53.01232 0.0658,0 -38.18704,52.99332 -37.40998,52.99332 1.23945,0 39.50585,-53.01232 39.30855,-53.01232 0.26507,0 -35.40806,49.41992 -35.00299,49.41992 0.86746,0 39.13376,-53.01264 39.37483,-53.01264 0.70343,-10e-6 -37.83721,53.39274 -36.82546,53.39274 1.47414,0 39.74016,-53.01256 39.84397,-53.01256 0.56616,0 -38.77005,54.49516 -37.79816,54.49516 1.43428,0 39.70005,-53.01242 39.27251,-53.01243 0.0348,0 -39.24636,54.41903 -38.47375,54.41903 1.235,0 39.50065,-53.01232 40.14466,-53.01231 1.10636,0 -35.91054,51.28261 -35.4302,51.28261 0.94272,0 39.20812,-53.01247 39.69272,-53.01247 0.94695,0 -35.71298,50.78847 -34.53298,50.78847 1.64237,0 39.90743,-53.01262 39.93596,-53.01262 0.49087,0 -40.17532,56.33912 -39.23002,56.33912 1.40767,0 39.6725,-53.01238 39.94898,-53.01238 0.73883,0 -37.2515,52.63218 -35.92982,52.63218 1.78406,0 40.04855,-53.01237 39.97082,-53.01237 0.3846,0 -38.77174,54.24797 -38.09215,54.24797 1.14197,0 39.4063,-53.0123 39.97944,-53.0123 1.03548,10e-6 -36.625,52.1759 -35.48046,52.1759 1.6069,0 39.87088,-53.01233 40.53258,-53.01232 1.12402,0 -37.63378,53.69662 -36.50254,53.69662 1.59361,0 39.85723,-53.01223 40.41265,-53.01223 1.01775,10e-6 -35.03667,49.95183 -33.90544,49.95183 1.59359,0 39.85687,-53.01252 40.31931,-53.01252 0.92476,-10e-6 -39.49261,55.99692 -38.79532,55.99692 1.15964,0 39.42266,-53.01223 39.75226,-53.01223 0.79193,0 -37.10054,52.49903 -35.87191,52.49903 1.69098,0 39.95369,-53.0123 40.06634,-53.0123 0.57497,0 -35.49233,49.9708 -34.77291,49.9708 1.18176,0 39.44426,-53.01256 39.31782,-53.01256 0.33588,0 -38.76358,54.17216 -38.22571,54.17216 1.00021,0 39.26257,-53.01248 39.68515,-53.01248 0.88488,0 -37.199,52.76528 -36.78954,52.76528 0.8718,0 39.13395,-53.01243 38.83927,-53.01243 0.16763,0 -39.32942,54.72333 -38.72957,54.72333 1.0622,0 39.32423,-53.01231 39.76009,-53.01231 0.89816,0 -37.03446,52.55611 -36.05825,52.55611 1.43856,0 39.70029,-53.01237 39.84393,-53.01237 0.60595,0 -37.73805,53.12637 -36.58473,53.12637 1.61565,0 39.8771,-53.01229 40.48119,-53.01229 1.0664,0 -35.24654,50.31289 -34.54929,50.31289 1.15958,0 39.42075,-53.01255 39.23234,-53.01255 0.27388,0 -40.23753,56.13025 -38.77428,56.13025 1.92557,0 40.18647,-53.01231 39.86966,-53.01232 0.14549,0 -37.40193,52.02372 -36.92607,52.02372 0.93818,0 39.19898,-53.01233 39.48429,-53.01233 0.74761,1e-5 -37.47194,52.95533 -36.89868,52.95533 1.03559,0 39.29617,-53.01236 39.99765,-53.01236 1.16377,10e-6 -36.10875,51.64356 -35.33625,51.64356 1.23483,0 39.49511,-53.01243 39.5502,-53.01243 0.51737,0 -37.68797,52.93643 -36.67196,52.93643 1.47834,0 39.73838,-53.01248 39.33746,-53.01248 0.0614,0 -37.49892,52.04288 -36.1597,52.04288 1.80155,0 40.06136,-53.01252 39.68701,-53.01252 0.0879,0 -39.17354,54.40032 -38.06012,54.40032 1.57573,0 39.83535,-53.01241 39.54954,-53.01241 0.17647,0 -37.21873,51.81471 -35.87509,51.81471 1.80596,0 40.06533,-53.01251 39.99646,-53.01251 0.3934,0 -39.03223,54.62851 -37.82585,54.62851 1.66869,0 39.92781,-53.01243 39.97847,-53.01243 0.51294,0 -39.66708,55.67393 -38.2172,55.67393 1.91219,0 40.171,-53.01213 40.1464,-53.01213 0.43767,0 -37.31343,52.30873 -35.96096,52.30873 1.81477,0 40.07329,-53.01219 40.60651,-53.01219 0.99547,10e-6 -37.38642,53.18329 -35.96755,53.18329 1.88116,0 40.1393,-53.01215 40.6548,-53.01215 0.97776,10e-6 -35.07118,49.95135 -33.99767,49.95135 1.53582,0 39.79363,-53.01248 40.41537,-53.01248 1.084,0 -37.81856,53.90598 -36.35102,53.90598 1.92983,0 40.18723,-53.01235 40.69387,-53.01235 0.96889,0 -39.12702,55.55995 -38.76188,55.55995 0.82741,0 39.08461,-53.01212 39.3699,-53.01212 0.74753,0 -34.84771,49.32382 -33.47759,49.32382 1.8324,0 40.08926,-53.01248 40.75525,-53.01248 1.12825,0 -36.82661,52.59418 -35.39452,52.59418 1.89436,0 40.15081,-53.0125 39.9757,-53.0125 0.28713,0 -41.12514,57.3853 -40.44126,57.3853 1.14616,0 39.40245,-53.01206 39.66118,-53.01206 0.72096,0 -35.09293,49.62786 -33.73613,49.62786 1.81908,0 40.07505,-53.01237 40.25851,-53.01237 0.6457,0 -38.063,53.63977 -37.62705,53.63977 0.89823,0 39.15402,-53.0123 39.59423,-53.0123 0.90245,0 -36.70835,52.1187 -35.5862,52.1187 1.58442,0 39.83989,-53.01238 40.4793,-53.01238 1.10164,0 -37.44183,53.41168 -36.22672,53.41168 1.67737,0 39.93247,-53.01238 40.53646,-53.01238 1.06622,0 -38.2041,54.41928 -37.54238,54.41928 1.12397,0 39.3788,-53.01218 39.96509,-53.01218 1.0485,0 -37.30225,53.14528 -36.06502,53.14528 1.69948,0 39.95394,-53.01217 39.71244,-53.01217 0.22071,0 -36.03049,50.23627 -35.23154,50.23627 1.2612,0 39.5155,-53.01247 39.48648,-53.01247 0.43319,0 -39.59109,55.46517 -38.45127,55.46517 1.60207,0 39.85612,-53.01221 40.11925,-53.01221 0.72534,0 -38.59887,54.49531 -37.53875,54.49531 1.52237,0 39.77614,-53.01211 39.43726,-53.01211 0.12333,0 -36.66231,50.97761 -35.5048,50.97761 1.61975,0 39.87332,-53.01225 40.03021,-53.01225 0.6191,0 -39.5279,55.63615 -38.61388,55.63615 1.37627,0 39.62959,-53.012 39.45449,-53.012 0.28711,0 -35.81201,50.0268 -35.23443,50.0268 1.03982,0 39.29301,-53.01224 38.87445,-53.01224 0.0436,0 -37.07072,51.43414 -36.39575,51.43414 1.13721,0 39.39028,-53.01245 39.01599,-53.01245 0.0879,0 -38.71402,53.77295 -37.94166,53.77295 1.23459,0 39.48753,-53.01232 40.10919,-53.01232 1.08387,0 -36.78474,52.47992 -35.55643,52.47992 1.69054,0 39.9431,-53.01237 40.44082,-53.01237 0.95991,-1e-5 -37.70416,53.58277 -37.14873,53.58277 1.01767,0 39.26999,-53.0123 39.2631,-53.0123 0.4553,0 -38.30466,53.7159 -36.94799,53.7159 1.81889,0 40.07092,-53.0123 39.79845,-53.0123 0.18972,0 -38.99535,54.3053 -38.59485,54.3053 0.86271,0 39.11465,-53.0122 39.76286,-53.0122 1.1104,1e-5 -35.28907,50.4452 -34.65839,50.4452 1.0929,-10e-5 39.34456,-53.0124 39.35095,-53.0124 0.46857,-10e-6 -37.86538,53.1264 -37.29668,53.1264 1.03093,0 39.28242,-53.01231 39.17373,-53.01231 0.35349,0 -38.5566,53.92501 -37.56737,53.92501 1.45145,0 39.70273,-53.01222 39.95257,-53.01222 0.71201,0 -39.02107,55.06592 -38.64714,55.06592 0.83614,0 39.08725,-53.01212 39.26184,-53.01212 0.63676,0 -38.25917,53.90582 -36.96895,53.90582 1.75244,0 39.86368,-52.81859 39.89944,-52.80408 0.39326,0.15958 -36.41233,51.16878 -34.98489,51.16878 1.88965,0 36.67732,-48.2128 36.67732,-48.2653 0,0.5881 -33.64656,47.2194 -33.2815,47.2194 0.82728,0 34.03615,-46.0248 34.03615,-46.3411 0,0.3243 -34.12241,47.6152 -33.70422,47.6152 0.88038,0 32.78492,-44.2171 32.78492,-44.5211 0,0.3365 -30.85198,43.0949 -30.13723,43.0949 1.17696,0 31.1663,-41.563 31.1663,-41.2228 0,0.9806 -28.89909,41.0326 -28.48091,41.0326 0.88038,0 28.61812,-38.4425 28.61812,-38.8937 0,0.1893 -30.49255,42.4497 -29.83534,42.4497 1.1194,0 27.26952,-36.2421 27.26952,-35.7363 0,1.1463 -24.43666,35.0137 -23.09336,35.0137 1.80549,0 23.61476,-30.2261 23.61476,-29.9596 0,0.907 -20.74294,29.6554 -20.02377,29.6554 1.18136,0 20.2433,-26.4187 20.2433,-26.0785 0,0.9806 -17.14845,24.7473 -16.4647,24.7473 1.14594,0 17.42517,-22.562 17.42517,-22.7434 0,0.4593 -14.87125,21.07 -13.40404,21.07 1.9294,0 14.61149,-17.5767 14.61149,-16.844 0,1.3733 -13.56369,20.1719 -12.33551,20.1719 1.69036,0 9.93433,-11.4258 9.93433,-11.2206 0,0.8457 -7.81503,11.677 -7.28621,11.677 0.99099,0 6.95691,-8.2685 6.95691,-7.5296 0,1.3794 -3.42216,6.1224 -2.01252,6.1224 1.87181,0 3.02787,-1.6023 3.02787,-1.1702 0,1.0727 0.61889,0.4285 0.61889,0.4285 z"
       id="rect7174"
       inkscape:path-effect="#path-effect7691"
       inkscape:original-d="m 2.5367898,995.12505 795.0607202,0 0,53.82355 -795.0607202,0 z"
       inkscape:connector-curvature="0" />
  </g>
</svg>
